<svg width="360" height="19" viewBox="0 0 360 19" fill="none" xmlns="http://www.w3.org/2000/svg">
<path d="M35.7683 0L53.8243 18.0608H359.373L355.096 13.7842H189.256L181.414 5.9423H133.184L127.361 0.119323L35.7683 0Z" fill="#00D9FF"/>
<path d="M36.7468 0.405702L127.194 0.525025L132.897 6.22867L133.017 6.34799H181.247L188.97 14.0706L189.089 14.1899H354.929L358.394 17.6551H53.9961L36.7515 0.410472M35.7731 0.00477759L53.8291 18.0608H359.373L355.096 13.7842H189.256L181.414 5.9423H133.184L127.361 0.119323L35.7683 0L35.7731 0.00477759Z" fill="#00D9FF"/>
<path d="M30.3654 0L48.7316 18.7719H36.6132L18.1992 0.35797L30.3654 0Z" fill="#00D9FF"/>
<path d="M30.2032 0.410472L47.7724 18.3662H36.7851L19.1539 0.735035L30.2032 0.410472ZM30.3703 0L18.2041 0.35797L36.6181 18.7719H48.7365L30.3703 0Z" fill="#00D9FF"/>
<path d="M12.1662 0L30.5324 18.7719H18.4139L0 0.35797L12.1662 0Z" fill="#00D9FF"/>
<path d="M12.004 0.410472L29.5732 18.3662H18.5859L0.954694 0.735035L12.004 0.410472ZM12.1711 0L0.00488281 0.35797L18.4188 18.7719H30.5373L12.1711 0Z" fill="#00D9FF"/>
</svg>
