<svg width="64" height="64" viewBox="0 0 64 64" fill="white" xmlns="http://www.w3.org/2000/svg">
<path d="M54.367 12.0843C50.2889 10.1763 45.9284 8.78959 41.3696 8C40.8097 9.01223 40.1556 10.3737 39.7047 11.4567C34.8586 10.7279 30.057 10.7279 25.3 11.4567C24.8492 10.3737 24.1802 9.01223 23.6153 8C19.0516 8.78959 14.6861 10.1814 10.608 12.0944C2.38244 24.5243 0.152621 36.6455 1.26753 48.5946C6.72316 52.6687 12.0103 55.1436 17.2083 56.7631C18.4917 54.9968 19.6363 53.1192 20.6223 51.1403C18.7443 50.4267 16.9456 49.5461 15.2461 48.5238C15.697 48.1897 16.138 47.8405 16.5641 47.4811C26.9303 52.3297 38.1934 52.3297 48.4357 47.4811C48.8668 47.8405 49.3077 48.1897 49.7537 48.5238C48.0491 49.5511 46.2455 50.4317 44.3675 51.1454C45.3536 53.1192 46.4933 55.0019 47.7816 56.7681C52.9845 55.1486 58.2766 52.6738 63.7322 48.5946C65.0404 34.7426 61.4975 22.7327 54.367 12.0843ZM22.0346 41.246C18.9228 41.246 16.3708 38.3409 16.3708 34.8033C16.3708 31.2656 18.8683 28.3555 22.0346 28.3555C25.201 28.3555 27.7528 31.2605 27.6983 34.8033C27.7033 38.3409 25.201 41.246 22.0346 41.246ZM42.9652 41.246C39.8534 41.246 37.3014 38.3409 37.3014 34.8033C37.3014 31.2656 39.7988 28.3555 42.9652 28.3555C46.1315 28.3555 48.6834 31.2605 48.629 34.8033C48.629 38.3409 46.1315 41.246 42.9652 41.246Z" />
</svg>
