<svg width="36" height="36" viewBox="0 0 36 36" fill="none" xmlns="http://www.w3.org/2000/svg">
<g clip-path="url(#clip0_1328_172)">
<path d="M35.9909 36.0003V35.9988H35.9999V22.7958C35.9999 16.3368 34.6094 11.3613 27.0584 11.3613C23.4284 11.3613 20.9924 13.3533 19.9979 15.2418H19.8929V11.9643H12.7334V35.9988H20.1884V24.0978C20.1884 20.9643 20.7824 17.9343 24.6629 17.9343C28.4864 17.9343 28.5434 21.5103 28.5434 24.2988V36.0003H35.9909Z" fill="white"/>
<path d="M0.593994 11.9658H8.05799V36.0003H0.593994V11.9658Z" fill="white"/>
<path d="M4.323 0C1.9365 0 0 1.9365 0 4.323C0 6.7095 1.9365 8.6865 4.323 8.6865C6.7095 8.6865 8.646 6.7095 8.646 4.323C8.6445 1.9365 6.708 0 4.323 0V0Z" fill="white"/>
</g>
<defs>
<clipPath id="clip0_1328_172">
<rect width="36" height="36" fill="white"/>
</clipPath>
</defs>
</svg>
