<svg width="64" height="64" viewBox="0 0 64 64" fill="white" xmlns="http://www.w3.org/2000/svg">
<path d="M62.5495 11.7722C61.5441 12.2182 60.5104 12.5945 59.4542 12.9001C60.7047 11.4859 61.6581 9.8219 62.2401 8.00101C62.3705 7.59285 62.2353 7.1461 61.8998 6.87916C61.5648 6.61201 61.0992 6.58001 60.7303 6.79864C58.4872 8.12901 56.0672 9.08508 53.5297 9.64414C50.9736 7.14651 47.502 5.7251 43.913 5.7251C36.3373 5.7251 30.174 11.8883 30.174 19.4637C30.174 20.0604 30.2118 20.6537 30.2865 21.2388C20.8858 20.4134 12.1461 15.7929 6.1446 8.43104C5.93072 8.16864 5.60123 8.02723 5.26389 8.05427C4.92634 8.0807 4.62306 8.27104 4.45254 8.56358C3.2353 10.6522 2.5918 13.0411 2.5918 15.4716C2.5918 18.782 3.77373 21.923 5.86156 24.3773C5.22672 24.1574 4.61068 23.8826 4.02271 23.5562C3.70704 23.3805 3.32181 23.3832 3.00821 23.563C2.6944 23.7428 2.49766 24.0736 2.4894 24.4351C2.48795 24.496 2.48795 24.5569 2.48795 24.6186C2.48795 29.56 5.14745 34.0088 9.21349 36.4336C8.86417 36.3987 8.51507 36.3481 8.16823 36.2818C7.81066 36.2135 7.44297 36.3388 7.20183 36.6115C6.96029 36.884 6.88039 37.2639 6.99167 37.6107C8.49669 42.3095 12.3716 45.7657 17.0559 46.8195C13.1707 49.2529 8.72771 50.5275 4.06358 50.5275C3.09038 50.5275 2.11159 50.4703 1.15367 50.357C0.677797 50.3004 0.22278 50.5814 0.0607168 51.0339C-0.101347 51.4867 0.07042 51.9914 0.475269 52.251C6.46708 56.0928 13.3953 58.1234 20.5107 58.1234C34.4985 58.1234 43.2489 51.5273 48.1263 45.9939C54.2083 39.0941 57.6965 29.9613 57.6965 20.9376C57.6965 20.5606 57.6907 20.1799 57.6791 19.8005C60.0787 17.9926 62.1447 15.8046 63.8258 13.2899C64.0812 12.9079 64.0535 12.4031 63.7577 12.0516C63.4622 11.6998 62.9699 11.586 62.5495 11.7722Z" />
</svg>
